<?xml version="1.0" encoding="utf-8"?>
<!-- Generator: Adobe Illustrator 27.2.0, SVG Export Plug-In . SVG Version: 6.00 Build 0)  -->
<svg version="1.1" id="Wing" xmlns="http://www.w3.org/2000/svg" xmlns:xlink="http://www.w3.org/1999/xlink" x="0px" y="0px"
	 viewBox="0 0 481.89 141.73" style="enable-background:new 0 0 481.89 141.73;" xml:space="preserve">
<style type="text/css">
	.st0{fill:#FFFFFF;}
</style>
<g>
	<path d="M240.94,107.19c-0.2,0-0.49,0-0.99-0.3c-19.45-11.61-39.3-29.53-43.35-50.39c-1.38-7.87,1.58-9.35,6.52-11.12
		c8.89-3.25,29.33-9.55,37.82-9.55c8.49,0,28.93,6.3,37.82,9.55c4.94,1.77,7.9,3.25,6.52,11.12c-4.05,20.87-23.9,38.78-43.35,50.39
		C241.44,107.19,241.14,107.19,240.94,107.19z"/>
	<g>
		<g>
			<path class="st0" d="M269.78,103.35c15.6-2.56,27.35-5.02,49.57-10.33c0.79-0.2,0.79-0.39-0.1-0.49
				c-9.78-0.59-18.07-1.18-23.9-1.67c-1.38-0.1-1.48-0.59-0.89-1.38c1.58-1.97,3.26-2.36,7.41-2.36c3.85,0,13.53,0.1,23.3,0.2
				c19.35,0.1,38.41-4.82,62.21-12.7c0.3-0.1,0.2-0.3-0.1-0.3c-33.28,0.79-73.66,1.18-80.18,1.18c-0.99,0-0.89-0.69-0.2-1.48
				c1.48-1.77,3.16-2.66,8.69-3.05c7.7-0.59,73.37-3.74,84.13-4.13c12.74-0.49,20.54-2.46,31.01-10.43
				c3.06-2.26,7.11-5.71,10.76-9.35c0.59-0.59,0.59-0.98-0.49-0.89c-19.95,1.77-121.55,11.22-126.29,11.81
				c-8.69,1.08-12.64,3.44-15.9,8.56c-10.76,16.73-15.5,24.9-29.52,36.02C268.69,103.05,268.69,103.54,269.78,103.35z
				 M240.94,107.19c-0.2,0-0.49,0-0.99-0.3c-19.45-11.61-39.3-29.53-43.35-50.39c-1.38-7.87,1.58-9.35,6.52-11.12
				c8.89-3.25,29.33-9.55,37.82-9.55c8.49,0,28.93,6.3,37.82,9.55c4.94,1.77,7.9,3.25,6.52,11.12
				c-4.05,20.87-23.9,38.78-43.35,50.39C241.44,107.19,241.14,107.19,240.94,107.19z M212.11,103.35c1.09,0.2,1.09-0.3,0.49-0.79
				c-14.02-11.12-18.76-19.29-29.52-36.02c-3.26-5.12-7.21-7.48-15.9-8.56c-4.74-0.59-106.35-10.04-126.29-11.81
				c-1.09-0.1-1.09,0.3-0.49,0.89c3.65,3.64,7.7,7.09,10.76,9.35c10.47,7.97,18.27,9.94,31.01,10.43
				c10.76,0.39,76.43,3.54,84.13,4.13c5.53,0.39,7.21,1.28,8.69,3.05c0.69,0.79,0.79,1.48-0.2,1.48c-6.52,0-46.9-0.39-80.18-1.18
				c-0.3,0-0.39,0.2-0.1,0.3c23.8,7.87,42.86,12.8,62.21,12.7c9.78-0.1,19.45-0.2,23.3-0.2c4.15,0,5.83,0.39,7.41,2.36
				c0.59,0.79,0.49,1.28-0.89,1.38c-5.83,0.49-14.12,1.08-23.9,1.67c-0.89,0.1-0.89,0.3-0.1,0.49
				C184.76,98.33,196.51,100.79,212.11,103.35z M240.94,113.39c0.3,0,0.79-0.1,1.18-0.3c23.9-11.91,35.05-22.83,49.08-45.47
				c5.23-8.66,8.2-13.09,20.93-14.96c19.95-2.85,110-9.15,127.78-11.61c7.6-1.08,9.68-2.26,13.23-6c0.59-0.59,0.59-1.08-0.49-0.98
				c-2.27,0.2-92.13,4.04-146.04,6c-13.23,0.69-17.18,0.39-28.24-3.25c-16.39-5.02-31.2-8.46-37.42-8.46s-21.03,3.44-37.42,8.46
				c-11.06,3.64-15.01,3.94-28.24,3.25c-53.91-1.97-143.77-5.81-146.04-6c-1.09-0.1-1.09,0.39-0.49,0.98
				c3.55,3.74,5.63,4.92,13.23,6C59.75,43.5,149.8,49.8,169.75,52.66c12.74,1.87,15.7,6.3,20.93,14.96
				c14.02,22.64,25.18,33.56,49.08,45.47C240.15,113.29,240.65,113.39,240.94,113.39z"/>
			<path class="st0" d="M272.59,58.5c-1.38-0.73-2.84-1.13-2.84-2.39c0-0.62,0.6-1.13,1.77-1.13c1.2,0,2.35,0.43,3.34,0.86
				l0.31-1.67c-0.94-0.32-2.14-0.59-3.47-0.59c-2.89,0-4.49,1.29-4.49,3.06c0,1.72,1.25,2.66,2.97,3.47
				c1.51,0.7,2.78,1.16,2.78,2.26c0,0.83-0.65,1.37-1.93,1.37c-1.2,0-2.48-0.43-3.47-0.86l-0.18,1.93c0.47,0.13,2.32,0.46,3.73,0.46
				c2.32,0,4.41-1.13,4.41-3.17C275.52,60.14,274.05,59.28,272.59,58.5z M226.47,55.25l-0.39-1.42h-7.98l-0.26,0.67l0.5,0.24
				c0.34,0.16,0.42,0.38,0.42,0.75v9.54h7.72v-1.45h-5.24v-3.65h4.54v-1.4h-4.54v-3.28H226.47z M256.52,58.5
				c-1.38-0.73-2.84-1.13-2.84-2.39c0-0.62,0.6-1.13,1.77-1.13c1.2,0,2.35,0.43,3.34,0.86l0.31-1.67c-0.94-0.32-2.14-0.59-3.47-0.59
				c-2.89,0-4.39,1.29-4.39,3.06c0,1.72,1.16,2.66,2.88,3.47c1.51,0.7,2.78,1.16,2.78,2.26c0,0.83-0.65,1.37-1.93,1.37
				c-1.2,0-2.48-0.43-3.47-0.86l-0.18,1.93c0.47,0.13,2.32,0.46,3.73,0.46c2.32,0,4.41-1.13,4.41-3.17
				C259.45,60.14,257.98,59.28,256.52,58.5z M261.14,54.49l0.5,0.24c0.37,0.19,0.44,0.38,0.44,0.75v9.54h2.48v-11.2h-3.13
				L261.14,54.49z M249.48,55.25l-0.39-1.42h-7.98l-0.26,0.67l0.5,0.24c0.34,0.16,0.42,0.38,0.42,0.75v9.54h7.72v-1.45h-5.24v-3.65
				h4.54v-1.4h-4.54v-3.28H249.48z M236.85,61.43l-6.02-7.6h-0.37h-2.01l-0.29,0.67l0.5,0.24c0.37,0.19,0.44,0.38,0.44,0.73v9.56
				h1.77v-7.25l5.76,7.25h1.98v-11.2h-1.77V61.43z M212.11,59.71l1.1,0.46c0.31,0.13,0.44,0.3,0.44,0.67v2.5
				c-0.47,0.24-1.1,0.46-1.8,0.43c-2.14-0.08-3.7-1.8-3.7-4.3c0-2.58,1.41-4.46,3.83-4.46c0.6,0,1.93,0.13,3.31,1.26l0.5-1.83
				c-1.64-0.7-2.61-0.86-3.86-0.91c-3.47-0.08-6.36,1.85-6.36,5.96c0,3.68,2.58,5.78,5.97,5.78c2.5,0,4.02-0.83,4.38-1.13v-5.08
				h-3.55L212.11,59.71z"/>
		</g>
	</g>
</g>
</svg>
