<?xml version="1.0" encoding="UTF-8"?>
<svg id="_레이어_1" data-name="레이어_1" xmlns="http://www.w3.org/2000/svg" version="1.1" viewBox="0 0 42 20">
  <!-- Generator: Adobe Illustrator 29.0.0, SVG Export Plug-In . SVG Version: 2.1.0 Build 186)  -->
  <defs>
    <style>
      .st0 {
        fill: #121212;
      }

      .st1 {
        stroke-miterlimit: 4;
        stroke-width: 1px;
      }

      .st1, .st2 {
        fill: none;
        stroke: #121212;
      }

      .st2 {
        stroke-linecap: square;
      }
    </style>
  </defs>
  <g id="_x38_08_x5F_Summary-Tech-specification:-Size-and-Shape">
    <g id="Artboard">
      <g id="Group-33">
        <g id="Group-32">
          <g id="Group-27">
            <g id="Group-28">
              <polyline id="Rectangle" class="st1" points="40.9 16 38 18.8 35.2 16"/>
              <polyline id="Rectangle-Copy-4" class="st1" points="35.2 4 38 1.2 40.9 4"/>
              <line id="Line-2" class="st2" x1="38" y1="1.5" x2="38" y2="18.5"/>
            </g>
          </g>
          <path id="front-view" class="st0" d="M22.1,0l.3.2c2.1,1.7,2.5,2.1,2.7,2.4h0c0,.1,0,.2.2.3h0c.5.8.9,1.6,1.2,2.5h0s.3-1.3.3-1.3l2.4.9c.6.2,1,.6.8,1.2-.1.4-.6.6-1.1.8-.2,0-.6.1-1.3.2h0l1.5,2.3v9.2h0c0,.9-.6,1.4-1.4,1.4h-2.6c-.8,0-1.3-.6-1.3-1.4h0v-.3H6.3v.3c0,.8-.5,1.3-1.3,1.4h0s-2.6,0-2.6,0c-.8,0-1.3-.5-1.4-1.4h0v-9.3l1.5-2.3c-.7,0-1-.1-1.3-.2-.6-.1-1-.4-1.1-.8-.2-.5.2-.9.8-1.2l2.4-.9.3,1.3h0c.3-.9.6-1.7,1.2-2.4h0c0-.2.1-.2.2-.3h0c.3-.4.7-.7,2.7-2.5l.3-.2h14ZM21.7,1h-13.3c-2.1,1.7-2.4,2-2.7,2.3h0c0,.1,0,.2-.2.3-.5.6-.8,1.3-1,2.1h0c0,0-.8,1.2-.8,1.2l-1.8,2.8v8.9c0,.3.1.4.4.4h2.6c.3,0,.4-.1.4-.3v-1.3h19.6v1.3c0,.2,0,.3.4.3h2.6c.3,0,.4,0,.4-.4h0v-8.9l-1.8-2.8-.8-1.1h0c-.2-.9-.6-1.6-1-2.2,0,0-.1-.1-.2-.2h0c0-.1,0-.2-.2-.2h0c-.3-.4-.9-.8-2.4-2.2h0ZM10.6,15.1l-.2-.6c-.4-1-.9-1.9-1.7-3.1,0,0,0,0,0,0,0,0,0,0,0,0,0,0,0-.1-.1-.2-.1-.2-.2-.4-.2-.6,0-.2.1-.3.2-.5.3-.4.6-.6,1-.8.3-.2.8-.4,1.1-.5h0s9.3,0,9.3,0h0c.3,0,.8.3,1.1.5.4.3.7.5,1,.8.1.1.2.3.2.5,0,.2,0,.4-.2.6,0,0,0,.1-.1.2,0,0,0,0,0,0,0,0,0,0,0,0-.8,1.2-1.3,2.1-1.7,3.1l-.2.6h-9.3ZM19.1,14.1c.4-1.1,1-2.1,1.8-3.3,0,0,0,0,0-.1h0c0,0,0,0,0,0,0,0,0,0,0,0-.2-.2-.4-.4-.7-.6-.2-.1-.5-.3-.7-.3h-9c-.2,0-.5.2-.7.3-.3.2-.5.4-.7.6,0,0,0,0,0,0,0,0,0,0,0,0,0,0,0,0,0,.1.9,1.2,1.4,2.2,1.8,3.3h7.8ZM2.6,5.4l-1.2.4s0,0,0,0c.2,0,.6,0,1.2.2,0,0,0,0,0,0v-.6ZM27.7,5.4v.6c-.1,0-.1,0-.1,0,.7,0,1.1-.1,1.2-.2,0,0,0,0,0,0h0l-1.2-.4Z"/>
        </g>
      </g>
    </g>
  </g>
</svg>