<?xml version="1.0" encoding="UTF-8"?>
<svg id="_레이어_1" data-name="레이어_1" xmlns="http://www.w3.org/2000/svg" version="1.1" viewBox="0 0 32 32">
  <!-- Generator: Adobe Illustrator 29.0.0, SVG Export Plug-In . SVG Version: 2.1.0 Build 186)  -->
  <defs>
    <style>
      .st0 {
        fill: #121212;
      }
    </style>
  </defs>
  <path class="st0" d="M26,3c.6,0,1,.4,1,1v24c0,.6-.4,1-1,1H6c-.6,0-1-.4-1-1V4c0-.6.4-1,1-1h20M26,1H6c-1.7,0-3,1.3-3,3v24c0,1.7,1.3,3,3,3h20c1.7,0,3-1.3,3-3V4c0-1.7-1.3-3-3-3h0Z"/>
  <path class="st0" d="M28,10H4c-.6,0-1-.4-1-1s.4-1,1-1h24c.6,0,1,.4,1,1s-.4,1-1,1Z"/>
  <circle class="st0" cx="9.5" cy="14.5" r="1.5"/>
  <circle class="st0" cx="16" cy="14.5" r="1.5"/>
  <circle class="st0" cx="22.5" cy="14.5" r="1.5"/>
  <circle class="st0" cx="9.5" cy="19.5" r="1.5"/>
  <circle class="st0" cx="16" cy="19.5" r="1.5"/>
  <circle class="st0" cx="22.5" cy="19.5" r="1.5"/>
  <circle class="st0" cx="9.5" cy="24.5" r="1.5"/>
  <circle class="st0" cx="16" cy="24.5" r="1.5"/>
  <circle class="st0" cx="22.5" cy="24.5" r="1.5"/>
</svg>