<?xml version="1.0" encoding="UTF-8"?>
<svg id="_레이어_1" data-name="레이어_1" xmlns="http://www.w3.org/2000/svg" version="1.1" viewBox="0 0 16 16">
  <!-- Generator: Adobe Illustrator 29.0.0, SVG Export Plug-In . SVG Version: 2.1.0 Build 186)  -->
  <defs>
    <style>
      .st0 {
        fill: #121212;
      }
    </style>
  </defs>
  <path class="st0" d="M13.2,11.1H4.4c-1.1,0-1.9-.9-1.9-1.9V1.2H.6V.2h2.9v9c0,.5.4.9.9.9h8.8v1Z"/>
  <path class="st0" d="M5.3,15.8c-1.1,0-1.9-.9-1.9-1.9s.9-1.9,1.9-1.9,1.9.9,1.9,1.9-.9,1.9-1.9,1.9ZM5.3,12.9c-.5,0-.9.4-.9.9s.4.9.9.9.9-.4.9-.9-.4-.9-.9-.9Z"/>
  <path class="st0" d="M11,15.8c-1.1,0-1.9-.9-1.9-1.9s.9-1.9,1.9-1.9,1.9.9,1.9,1.9-.9,1.9-1.9,1.9ZM11,12.9c-.5,0-.9.4-.9.9s.4.9.9.9.9-.4.9-.9c0-.5-.4-.9-.9-.9Z"/>
  <path class="st0" d="M11.3,8.7H3.1v-1h8.2c.8,0,1.5-.6,1.6-1.4l.5-3.3H3.1v-1h11.5l-.6,4.4c-.2,1.3-1.3,2.3-2.6,2.3Z"/>
</svg>