<?xml version="1.0" encoding="UTF-8"?>
<svg id="_레이어_1" data-name="레이어_1" xmlns="http://www.w3.org/2000/svg" version="1.1" viewBox="0 0 16 16">
  <!-- Generator: Adobe Illustrator 29.0.0, SVG Export Plug-In . SVG Version: 2.1.0 Build 186)  -->
  <defs>
    <style>
      .st0 {
        fill: #fff;
      }

      .st1 {
        display: none;
      }
    </style>
  </defs>
  <g id="_레이어_11" data-name="레이어_1" class="st1">
    <g>
      <path class="st0" d="M13.2,11.1H4.4c-1.1,0-1.9-.9-1.9-1.9V1.2H.6V.2h2.9v9c0,.5.4.9.9.9h8.8v1Z"/>
      <path class="st0" d="M5.3,15.8c-1.1,0-1.9-.9-1.9-1.9s.9-1.9,1.9-1.9,1.9.9,1.9,1.9-.9,1.9-1.9,1.9ZM5.3,12.9c-.5,0-.9.4-.9.9s.4.9.9.9.9-.4.9-.9-.4-.9-.9-.9Z"/>
      <path class="st0" d="M11,15.8c-1.1,0-1.9-.9-1.9-1.9s.9-1.9,1.9-1.9,1.9.9,1.9,1.9-.9,1.9-1.9,1.9ZM11,12.9c-.5,0-.9.4-.9.9s.4.9.9.9.9-.4.9-.9c0-.5-.4-.9-.9-.9Z"/>
      <path class="st0" d="M11.3,8.7H3.1v-1h8.2c.8,0,1.5-.6,1.6-1.4l.5-3.3H3.1v-1h11.5l-.6,4.4c-.2,1.3-1.3,2.3-2.6,2.3Z"/>
    </g>
  </g>
  <g id="_레이어_2" data-name="레이어_2">
    <path d="M13.3,15.6H5.1c-.3,0-.5-.2-.5-.5s.2-.5.5-.5h8.2c.4,0,.7-.3.7-.7v-.7H4.6v.8c0,.6-.3,1.1-.9,1.4-.5.3-1.2.3-1.7,0-.5-.3-.9-.9-.9-1.4V.8c0-.3.2-.5.5-.5h11.4c.3,0,.5.2.5.5v10.4c0,.3-.2.5-.5.5s-.5-.2-.5-.5V1.3H2.2v12.6c0,.4.3.6.7.6s.7-.3.7-.6v-1.3c0-.3.2-.5.5-.5h10.4c.3,0,.5.2.5.5v1.2c0,.9-.8,1.7-1.7,1.7ZM9.5,9.2h-5.2c-.3,0-.5-.2-.5-.5s.2-.5.5-.5h5.2c.3,0,.5.2.5.5,0,.3-.2.5-.5.5ZM10.4,6.8h-6c-.3,0-.5-.2-.5-.5s.2-.5.5-.5h6c.3,0,.5.2.5.5h0c0,.3-.2.5-.5.5ZM7.5,4.4h-3.2c-.3,0-.5-.2-.5-.5s.2-.5.5-.5h3.2c.3,0,.5.2.5.5s-.2.5-.5.5Z"/>
  </g>
</svg>