<?xml version="1.0" encoding="UTF-8"?>
<svg id="_레이어_1" data-name="레이어_1" xmlns="http://www.w3.org/2000/svg" version="1.1" viewBox="0 0 32 32">
  <!-- Generator: Adobe Illustrator 29.0.0, SVG Export Plug-In . SVG Version: 2.1.0 Build 186)  -->
  <defs>
    <style>
      .st0 {
        fill: #121212;
      }
    </style>
  </defs>
  <path class="st0" d="M4.2,28.8c-.3,0-.5-.1-.7-.3-.2-.2-.3-.5-.3-.8l.7-5.8c0-.2,0-.4.3-.6L21.9,3.5c1.2-1.2,3-1.2,4.2,0l2.5,2.5c1.1,1.1,1.1,3-.1,4.2L10.8,27.8c-.2.2-.4.3-.6.3l-5.9.7s0,0,0,0ZM5.9,22.4l-.5,4.2,4.2-.5L27,8.7c.4-.4.4-1,.1-1.3l-2.5-2.5c-.3-.3-.9-.3-1.3,0L5.9,22.4Z"/>
  <path class="st0" d="M24.7,13.1c-.3,0-.5-.1-.7-.3l-4.4-4.4c-.4-.4-.4-1,0-1.4s1-.4,1.4,0l4.4,4.4c.4.4.4,1,0,1.4-.2.2-.5.3-.7.3Z"/>
</svg>