<?xml version="1.0" encoding="UTF-8"?>
<svg id="_레이어_1" data-name="레이어_1" xmlns="http://www.w3.org/2000/svg" version="1.1" viewBox="0 0 64 64">
  <!-- Generator: Adobe Illustrator 29.0.0, SVG Export Plug-In . SVG Version: 2.1.0 Build 186)  -->
  <defs>
    <style>
      .st0 {
        fill: #121212;
        stroke: #fff;
        stroke-miterlimit: 10;
        stroke-width: .5px;
      }
    </style>
  </defs>
  <path class="st0" d="M3.3,27.2h57.6v29.5c0,2.4-1.9,4.2-4.2,4.2H7.6c-2.4,0-4.2-1.9-4.2-4.2,0,0,0-29.5,0-29.5ZM46.9,13.1c1.6,0,2.8,1.2,2.8,2.8s-1.2,2.8-2.8,2.8-2.8-1.2-2.8-2.8,1.2-2.8,2.8-2.8ZM17.4,13.1c1.6,0,2.8,1.2,2.8,2.8s-1.2,2.8-2.8,2.8-2.8-1.2-2.8-2.8,1.2-2.8,2.8-2.8ZM23,4.7c-.8,0-1.4.6-1.4,1.4s.6,1.4,1.4,1.4h18.3c.8,0,1.4-.6,1.4-1.4s-.6-1.4-1.4-1.4h-18.3ZM7.6,4.7C3.7,4.7.5,7.9.5,11.7v44.9c0,3.9,3.2,7,7.1,7h49.2c3.9,0,7-3.2,7-7V11.7c0-3.9-3.2-7.1-7-7.1h-4.2c-.7,0-1.4.7-1.4,1.4s.7,1.4,1.4,1.4h4.2c2.4,0,4.2,1.9,4.2,4.2v12.6H3.3v-12.6c0-2.4,1.9-4.2,4.2-4.2h4.2c.7,0,1.4-.7,1.4-1.4s-.7-1.4-1.4-1.4h-4.2ZM46.9.5c-.8,0-1.4.6-1.4,1.4v8.6c-2.4.6-4.2,2.8-4.2,5.4s2.5,5.6,5.6,5.6,5.6-2.5,5.6-5.6-1.8-4.8-4.2-5.4V1.9c0-.8-.6-1.4-1.4-1.4ZM17.4.5c-.8,0-1.4.6-1.4,1.4v8.6c-2.4.6-4.2,2.8-4.2,5.4s2.5,5.6,5.6,5.6,5.6-2.5,5.6-5.6-1.8-4.8-4.2-5.4V1.9c0-.8-.6-1.4-1.4-1.4Z"/>
</svg>