<?xml version="1.0" encoding="UTF-8"?>
<svg id="_레이어_1" data-name="레이어_1" xmlns="http://www.w3.org/2000/svg" version="1.1" viewBox="0 0 18.2 18.8">
  <!-- Generator: Adobe Illustrator 29.0.0, SVG Export Plug-In . SVG Version: 2.1.0 Build 186)  -->
  <defs>
    <style>
      .st0 {
        fill: #152e56;
      }

      .st1 {
        fill: #121212;
      }
    </style>
  </defs>
  <path class="st0" d="M17,3.9l-2.4-2.4-1.7,1.8,2.4,2.4,1.7-1.8ZM14.7,6.2l-2.4-2.4L1.9,14.4l-.7,3.1,3.1-.8L14.7,6.2ZM17.4,4.2c0,0,0,.2-.1.3l-2.1,2.2-10.1,10.3h0s0,0,0,0h0s0,0,0,0l-3.6.9h0c-.1,0-.2,0-.3-.1s-.1-.2,0-.3l.9-3.7h0c0,0,0-.1,0-.2h0S14,1.1,14,1.1c.1-.1.4-.1.5,0l2.8,2.8c0,0,.1.2.1.3Z"/>
  <path class="st1" d="M1.2,18.4c-.2,0-.5,0-.6-.2h-.1s0,0,0,0c0,0,0,0,0,0-.2-.2-.2-.5-.2-.8l.9-3.7s0,0,0-.1h0c0,0,.1-.2.1-.2L13.7.8c.2-.2.4-.3.6-.3h0c.2,0,.4,0,.6.3l2.8,2.8c.2.2.2.4.2.6h0c0,.2,0,.4-.2.6l-12.4,12.7h-.1s-3.8.9-3.8.9h0ZM2.3,14.7l-.5,2.2,2.2-.5L14,6.2l-1.7-1.7L2.3,14.7ZM13.6,3.2l1.7,1.7,1-1.1-1.7-1.7-1,1.1Z"/>
</svg>