<?xml version="1.0" encoding="UTF-8"?>
<svg id="_레이어_1" data-name="레이어_1" xmlns="http://www.w3.org/2000/svg" version="1.1" xmlns:xlink="http://www.w3.org/1999/xlink" viewBox="0 0 22 22">
  <!-- Generator: Adobe Illustrator 29.0.0, SVG Export Plug-In . SVG Version: 2.1.0 Build 186)  -->
  <defs>
    <style>
      .st0 {
        fill: #121212;
      }

      .st1, .st2 {
        fill: none;
      }

      .st1, .st3 {
        stroke: #fff;
        stroke-miterlimit: 10;
      }

      .st4 {
        clip-path: url(#clippath-1);
      }

      .st5 {
        clip-path: url(#clippath);
      }
    </style>
    <clipPath id="clippath">
      <path class="st2" d="M101.4-661.9c-.3,0-.6.2-.8.4l-.8-.5c0-.2.1-.3.1-.5s0-.3-.1-.5l.8-.5c.2.2.5.4.8.4.5,0,.9-.4.9-.9s-.4-.9-.9-.9-.9.4-.9.9,0,0,0,.1l-1,.6c-.1,0-.3-.1-.5-.1-.5,0-.9.4-.9.9s.4.9.9.9.3,0,.5-.1l1,.7h0c0,.6.4,1,.9,1s.9-.4.9-.9c0-.5-.4-1-1-1M101.4-664.5c.3,0,.5.2.5.5s-.2.5-.5.5-.5-.2-.5-.5.2-.5.5-.5M101.4-661.4c.3,0,.5.2.5.5s-.2.5-.5.5-.5-.2-.5-.5.2-.5.5-.5M99.5-662.5c0,.3-.2.5-.5.5s-.5-.2-.5-.5.2-.5.5-.5.5.2.5.5Z"/>
    </clipPath>
    <clipPath id="clippath-1">
      <rect class="st2" x="-156.9" y="-873.2" width="351" height="1768.2"/>
    </clipPath>
  </defs>
  <g>
    <path id="SVGID" d="M101.4-661.9c-.3,0-.6.2-.8.4l-.8-.5c0-.2.1-.3.1-.5s0-.3-.1-.5l.8-.5c.2.2.5.4.8.4.5,0,.9-.4.9-.9s-.4-.9-.9-.9-.9.4-.9.9,0,0,0,.1l-1,.6c-.1,0-.3-.1-.5-.1-.5,0-.9.4-.9.9s.4.9.9.9.3,0,.5-.1l1,.7h0c0,.6.4,1,.9,1s.9-.4.9-.9c0-.5-.4-1-1-1M101.4-664.5c.3,0,.5.2.5.5s-.2.5-.5.5-.5-.2-.5-.5.2-.5.5-.5M101.4-661.4c.3,0,.5.2.5.5s-.2.5-.5.5-.5-.2-.5-.5.2-.5.5-.5M99.5-662.5c0,.3-.2.5-.5.5s-.5-.2-.5-.5.2-.5.5-.5.5.2.5.5"/>
    <g class="st5">
      <g>
        <rect id="SVGID1" data-name="SVGID" x="-156.9" y="-873.2" width="351" height="1768.2"/>
        <g class="st4">
          <rect class="st3" x="97.8" y="-665.2" width="4.8" height="5.5"/>
        </g>
        <rect id="SVGID2" data-name="SVGID" class="st1" x="-156.9" y="-873.2" width="351" height="1768.2"/>
      </g>
    </g>
    <path id="SVGID3" data-name="SVGID" class="st1" d="M101.4-661.9c-.3,0-.6.2-.8.4l-.8-.5c0-.2.1-.3.1-.5s0-.3-.1-.5l.8-.5c.2.2.5.4.8.4.5,0,.9-.4.9-.9s-.4-.9-.9-.9-.9.4-.9.9,0,0,0,.1l-1,.6c-.1,0-.3-.1-.5-.1-.5,0-.9.4-.9.9s.4.9.9.9.3,0,.5-.1l1,.7h0c0,.6.4,1,.9,1s.9-.4.9-.9c0-.5-.4-1-1-1M101.4-664.5c.3,0,.5.2.5.5s-.2.5-.5.5-.5-.2-.5-.5.2-.5.5-.5M101.4-661.4c.3,0,.5.2.5.5s-.2.5-.5.5-.5-.2-.5-.5.2-.5.5-.5M99.5-662.5c0,.3-.2.5-.5.5s-.5-.2-.5-.5.2-.5.5-.5.5.2.5.5"/>
  </g>
  <path class="st0" d="M16.4,13.6c-1.3,0-2.5.7-3.2,1.8l-3.4-2.3c.4-.6.6-1.3.6-2.1s-.2-1.4-.6-2l3.4-2.2c.7,1,1.9,1.7,3.2,1.7,2.2,0,3.9-1.8,3.9-3.9s-1.8-3.9-3.9-3.9-3.9,1.8-3.9,3.9,0,.3,0,.5l-4.1,2.7c-.6-.3-1.3-.5-2-.5-2.2,0-3.9,1.8-3.9,3.9s1.8,3.9,3.9,3.9,1.3-.2,1.9-.5l4.2,2.8c0,.1,0,.2,0,.3,0,2.2,1.8,3.9,3.9,3.9s3.9-1.8,3.9-3.9c0-2.2-1.7-3.9-3.9-3.9M16.4,2.4c1.1,0,2,.9,2,2s-.9,2-2,2-2-.9-2-2,.9-2,2-2M16.4,15.5c1.1,0,2,.9,2,2s-.9,2-2,2-2-.9-2-2,.9-2,2-2M8.4,11c0,1.1-.9,2-2,2s-2-.9-2-2,.9-2,2-2c1.1,0,2,.9,2,2"/>
</svg>