<?xml version="1.0" encoding="UTF-8"?>
<svg id="_레이어_1" data-name="레이어_1" xmlns="http://www.w3.org/2000/svg" version="1.1" viewBox="0 0 52 34">
  <!-- Generator: Adobe Illustrator 29.0.0, SVG Export Plug-In . SVG Version: 2.1.0 Build 186)  -->
  <defs>
    <style>
      .st0 {
        fill: #121212;
      }

      .st1 {
        stroke-miterlimit: 4;
        stroke-width: 1px;
      }

      .st1, .st2 {
        stroke: #121212;
      }

      .st1, .st2, .st3 {
        fill: none;
      }

      .st2, .st3 {
        stroke-linecap: square;
      }

      .st3 {
        stroke: #999;
        stroke-dasharray: 2 3;
      }
    </style>
  </defs>
  <g id="_x38_08_x5F_Summary-Tech-specification:-Size-and-Shape">
    <g id="Artboard">
      <g id="Group">
        <line id="Line-3-Copy-2" class="st3" x1="10" y1="29.5" x2="10" y2=".5"/>
        <line id="Line-3-Copy-3" class="st3" x1="43" y1="29.5" x2="43" y2=".5"/>
        <g id="Group-28">
          <polyline id="Rectangle" class="st1" points="12.8 32.7 10 29.8 12.8 27"/>
          <polyline id="Rectangle-Copy-4" class="st1" points="40.8 27.3 43.7 30.2 40.8 33"/>
          <line id="Line-2" class="st2" x1="43" y1="30" x2="11" y2="30"/>
        </g>
        <path id="Combined-Shape-Copy-5" class="st0" d="M41.7,2h-5.7s-5.6,0-5.6,0h-4s-1.3,0-1.3,0h-.4s-.2,0-.2,0h0s0,0,0,0h0s0,0,0,0c-1.1,0-2.2.4-3.5.9-1.2.5-2.4,1.1-3.7,1.9-1,.6-2,1.3-2.9,1.9h-.1c0,0-.2.2-.2.2h-.2c0,.1-.3.3-.3.3l-.3.2h-.4c0,0-.3.1-.3.1h-.5c0,0-.3.1-.3.1h-.3c-1.5.3-3,.7-4.3,1h-.4c0,.1-.3.2-.3.2h-.3c0,0-.4.2-.4.2h-.3c0,0-.2.1-.2.1h-.4c0,0-.2.2-.2.2h-.2c0,0-.2.1-.2.1h-.2c0,0-.2.1-.2.1h-.2c0,0,0,0,0,0h-.2c0,0,0,0,0,0h-.2c0,0-.2.1-.2.1,0,0,0,0,0,0h-.2c0,0-.2.1-.2.1h-.2c-.5.3-.9.5-1.2.7h0s-.1,0-.1,0h0C.3,11.6,0,12.4,0,13.6v2.6h0c0,1.5.7,2.4,1.9,2.6h0s4,.4,4,.4h0c.7,1.7,2.3,2.8,4.2,2.8h0c1.8,0,3.4-1.1,4.1-2.7h0c0,0,24.3,0,24.3,0h0c.7,1.7,2.3,2.8,4.2,2.8h0c1.8,0,3.4-1.1,4.1-2.7h0c0,0,.2,0,.2,0l2.6-1.1h0s0,0,0,0c.7-.4,1-1.1,1-2.1v-5.5l-1.1-1.4v-1.1s-.2-.3-.2-.3c0,0-.1-.2-.2-.2l-.2-.2-.2-.2-.2-.2-.2-.2-.2-.2c-.2-.2-.4-.3-.5-.5l-.2-.2c0,0-.1-.1-.2-.2l-.2-.2-.2-.2c0,0-.1-.1-.2-.2l-.2-.2s0,0,0,0l-.2-.2-.2-.2-.2-.2c0,0-.1,0-.2-.1h-.2c0-.2-.1-.2-.2-.3h-.2c-1.2-1-2.3-1.5-3.3-1.7h-.1ZM41.6,3h0c.8.2,1.6.6,2.6,1.2h.2c0,.2.1.2.2.2h.2c.3.3.5.5.8.7l.2.2s0,0,0,0l.2.2.2.2c0,0,.1.1.2.2l.2.2c0,0,.1.1.2.2l.2.2.2.2s0,0,.1,0l.2.2s0,0,.1,0l.2.2.2.2.2.2.2.2.2.2.2.2v1.1s1.1,1.4,1.1,1.4v5.2h0c0,.7-.2,1-.5,1.2h0s-2.4,1.1-2.4,1.1h-.7s-.1.4-.1.4c-.5,1.5-1.8,2.5-3.4,2.5s-2.9-1-3.4-2.5v-.4c-.1,0-25.9,0-25.9,0v.4c-.6,1.5-1.9,2.5-3.5,2.5s-2.9-1-3.4-2.5v-.4c-.1,0-.6,0-.6,0l-4.1-.4h0c-.7,0-1.1-.5-1.1-1.5h0v-2.7h0c0-.9.2-1.5.5-1.8h0s0,0,0,0c.2-.1.4-.2.7-.4h.1c0,0,0,0,0,0h.1c0,0,.1-.1.2-.1h.2c0,0,.2-.1.2-.1h.2c0,0,.2-.1.2-.1,0,0,0,0,0,0h.2c0,0,.2-.1.2-.1h.2c0,0,.2-.1.2-.1h.2c0,0,.2-.1.2-.1h.2c0,0,.2-.1.2-.1h.2c0,0,.4-.2.4-.2h.3c0,0,.3-.1.3-.1h.3c0,0,.4-.2.4-.2,0,0,0,0,.1,0,1.3-.3,2.6-.6,3.9-.8h.5c0-.1.3-.2.3-.2h.5c0,0,.3-.1.3-.1h.5c0,0,.2-.1.2-.1h.1s.2-.2.2-.2h.2c0-.1.2-.3.2-.3h.2c0-.1.2-.3.2-.3h.2c0-.2,0-.2.1-.2.9-.6,1.9-1.3,2.9-1.9,1.3-.7,2.5-1.4,3.6-1.8h.1c1.2-.5,2.2-.8,3.1-.8h.1s.3,0,.3,0h1s4.7,0,4.7,0h4.6s5.5,0,5.5,0h1Z"/>
      </g>
    </g>
  </g>
</svg>