<?xml version="1.0" encoding="UTF-8"?>
<svg id="_레이어_1" data-name="레이어_1" xmlns="http://www.w3.org/2000/svg" version="1.1" viewBox="0 0 30 32">
  <!-- Generator: Adobe Illustrator 29.0.0, SVG Export Plug-In . SVG Version: 2.1.0 Build 186)  -->
  <defs>
    <style>
      .st0 {
        fill: #121212;
      }

      .st1 {
        stroke-miterlimit: 4;
        stroke-width: 1px;
      }

      .st1, .st2 {
        fill: none;
        stroke: #121212;
      }

      .st2 {
        stroke-linecap: square;
      }
    </style>
  </defs>
  <g id="_x38_08_x5F_Summary-Tech-specification:-Size-and-Shape">
    <g id="Artboard">
      <g id="Group-25">
        <g id="Group-24">
          <path id="back-view" class="st0" d="M22.1,0l1.3,1.1.8.6.3.3.2.2h.1c0,.1,0,.2,0,.2h0c0,0,0,.2,0,.2h0c0,0,0,.1,0,.1,0,0,0,0,0,0h0l.2.2h0c.5.8.8,1.5,1.1,2.3h0c0,0,.7,1,.7,1l2,3v9.2h0c-.1.9-.6,1.4-1.4,1.4h-2.7c-.8-.1-1.3-.6-1.3-1.4h0v-.3s-17.5,0-17.5,0v.3c0,.8-.5,1.3-1.3,1.4h0s-2.6,0-2.6,0c-.8,0-1.3-.5-1.4-1.3h0c0,0,0,0,0,0v-9.2l2-3,.7-1h0c.2-.9.6-1.6,1.1-2.3h0c0-.1.2-.4.2-.4h0c0,0,0-.1,0-.1h0c0,0,0-.1,0-.1h0c0,0,0-.2,0-.2h.1c0-.1.2-.2.2-.2l.2-.2.5-.4,1.8-1.5h14ZM8.4,11.6l-2.3-2.6.5-2.4v-1.6s1.6-3.8,1.6-3.8l-1.1.9-.4.4-.3.3h-.2c0,.1-.1.3-.1.3h0c0,0,0,.1,0,.1h0c0,0,0,0,0,0h0c0,0,0,.1,0,.1v.2c-.6.6-.9,1.2-1.1,2h0c0,.1,0,.2,0,.2l-.8,1.1-1.8,2.8v8.9h0c0,.3.1.4.4.4h2.6s0,0,0,0c.3,0,.3-.1.4-.3h0v-1.4h19.5v1.4c0,.2,0,.3.4.3h0s2.6,0,2.6,0c.2,0,.3-.1.4-.4h0v-8.9l-1.8-2.8-.8-1.1h0c0,0,0-.2,0-.2-.2-.7-.6-1.4-1-2h0v-.2c-.1,0-.2,0-.2,0h0s0,0,0,0h0s0-.1,0-.1h0c0,0,0-.2,0-.2h-.1c0-.1-.2-.3-.2-.3l-.4-.3-.4-.4,1.3,3.1v1.6s.5,2.4.5,2.4l-2.2,2.6h-14.1ZM22,10.6l1.6-1.8-.5-2v-1.5s-1.8-4.2-1.8-4.2h-11.9l-1.8,4.2v1.5s-.5,2-.5,2l1.7,1.8h13.2Z"/>
          <g id="Group-27">
            <g id="Group-28">
              <polyline id="Rectangle" class="st1" points="4.2 30.7 1.4 27.9 4.2 25.1"/>
              <polyline id="Rectangle-Copy-4" class="st1" points="26.4 25.1 29.2 27.9 26.4 30.7"/>
              <line id="Line-2" class="st2" x1="28.6" y1="27.9" x2="2" y2="27.9"/>
            </g>
          </g>
        </g>
      </g>
    </g>
  </g>
</svg>